<svg xmlns="http://www.w3.org/2000/svg" width="48" height="48" viewBox="0 0 48 48">
  <g fill="none" fill-rule="evenodd" transform="translate(5)">
    <path fill="#445868" d="M38.7032908,4.55322996 L4.55396162,4.55322996 L4.55396162,1.30528295 C4.55396162,0.584387969 5.13834959,0 5.85924457,0 L37.3980079,0 C38.1189029,0 38.7032908,0.584387969 38.7032908,1.30528295 L38.7032908,4.55322996 Z"/>
    <path fill="#E1E6E9" d="M37.3980079,40.9791742 L4.55396162,40.9791742 L4.55396162,4.55322996 L38.7032908,4.55322996 L38.7032908,39.6738912 C38.7032908,40.3947862 38.1189029,40.9791742 37.3980079,40.9791742 Z"/>
    <path fill="#445868" d="M34.1500609,12.5214347 L0.000731660845,12.5214347 L0.000731660845,9.27338311 C0.000731660845,8.55248814 0.58511963,7.96810017 1.30601461,7.96810017 L32.8447779,7.96810017 C33.5656729,7.96810017 34.1500609,8.55248814 34.1500609,9.27338311 L34.1500609,12.5214347 Z"/>
    <path fill="#EBF0F3" d="M32.8447779,47.9261023 L1.30601461,47.9261023 C0.58511963,47.9261023 0.000731660845,47.3580988 0.000731660845,46.6574156 L0.000731660845,12.5214347 L34.1500609,12.5214347 L34.1500609,46.6574156 C34.1500609,47.3580988 33.5656729,47.9261023 32.8447779,47.9261023 Z"/>
    <circle cx="8.47" cy="2.276" r="1.305" fill="#E64C3B"/>
    <circle cx="13.041" cy="2.276" r="1.305" fill="#F5A623"/>
    <circle cx="17.61" cy="2.276" r="1.305" fill="#25AD5F"/>
    <circle cx="3.917" cy="10.246" r="1.305" fill="#E64C3B"/>
    <circle cx="8.485" cy="10.246" r="1.305" fill="#F5A623"/>
    <circle cx="13.053" cy="10.246" r="1.305" fill="#25AD5F"/>
    <g transform="translate(0 12)">
      <rect width="34.151" height="12.767" y=".352" fill="#D53926"/>
      <g stroke="#FFF" stroke-linecap="round" stroke-linejoin="round" transform="translate(9 4)">
        <polyline points="9 3 12.035 0 15.035 3"/>
        <polyline points="0 5 5.5 0 11 5"/>
      </g>
    </g>
    <path stroke="#AFB1BB" stroke-linecap="round" stroke-width="2" d="M4.02308942 30.1276596L29.5524435 30.1276596M4.02308942 34.212766L29.5524435 34.212766M4.02308942 38.2978723L29.5524435 38.2978723M4.02308942 42.3829787L29.5524435 42.3829787"/>
  </g>
</svg>
