<svg version="1" xmlns="http://www.w3.org/2000/svg" width="933.333" height="933.333" viewBox="0 0 700.000000 700.000000"><path d="M337.5 1.4c-8 2.3-10 3.2-23.5 11.1-7.1 4.1-13.3 7.5-13.8 7.5-.6 0-1.2.4-1.4.8-.1.4-2.5 2.1-5.3 3.6-7.3 4.1-10.1 5.7-41 23.6-15.4 8.9-36.7 21.2-47.3 27.4-10.6 6.1-20.7 11.9-22.5 13-3.2 1.9-71.7 41.4-77.2 44.6-1.6.9-10.6 6.1-20 11.5-9.3 5.4-18.8 10.9-21 12.3-6.4 4-14.9 13.5-18.3 20.4-6.5 13-6.1 3.6-5.9 175.8.2 126.5.5 157.2 1.5 160 3.2 8.3 8 16.5 12.7 21.4 6.5 6.7 9.6 8.8 33.5 22.3 3.6 2.1 72.4 41.9 117.5 68.1 13.8 7.9 27 15.6 29.5 17 4.3 2.4 30.8 17.7 36 20.7 1.4.8 8.8 5.1 16.5 9.6 7.7 4.4 14.7 8.5 15.5 9 8.6 5.3 24.8 14.1 29.6 15.9 5 2 7.7 2.4 17.4 2.4 13.8 0 17.4-1.2 35-11.4 6.3-3.7 13.5-7.8 16-9.2 2.5-1.4 14.2-8.2 26-15 18.3-10.6 53.4-30.9 63.5-36.8 1.7-.9 14.3-8.3 28.1-16.2 13.8-8 27.1-15.7 29.5-17.1 2.4-1.3 11.2-6.4 19.4-11.2 8.3-4.8 17-9.9 19.5-11.3 10.8-6 43-24.8 48-28 7.6-4.8 15.2-13.1 18.8-20.5 6.5-13.1 6.2-4.1 6.2-172.8 0-169.1.3-159.6-6.3-172.8-5.4-10.8-13.6-18-33.8-29.5-19.7-11.3-47.4-27.3-85.4-49.3-14.3-8.3-27.6-15.9-29.5-17-1.9-1.1-12.2-7.1-22.8-13.2-10.6-6.1-20.7-12-22.5-13-1.7-1-5.6-3.2-8.5-5-2.9-1.7-5.7-3.1-6.2-3.1-.6 0-1-.5-1-1 0-.6-.4-1-1-1-.5 0-5.5-2.7-11.1-6-5.5-3.3-10.2-6-10.4-6-.2 0-31.1-17.9-34.5-20-6.1-3.8-14.4-8-19.5-9.9-7.7-2.9-22.7-3.7-30-1.7zm134.6 178.3c0 .5.1 27.1.2 59.2.1 40.5-.1 58.8-.9 59.5-.7.8-41 1.1-135.5 1-73.9-.1-134.6-.2-134.9-.3-.5-.1-.6-35.3-.1-37.2 0-.3 51.7-.5 114.9-.5 63.1.1 115.6 0 116.7-.2 2-.3 2-1 1.7-41.3L434 179h19c10.4 0 19 .3 19.1.7zm27.4 168v18.8l-25.7.3c-14.2.1-25.8.5-25.8.8 0 .3 1.3 2.4 2.9 4.7 7 10.4 13 26.9 14.9 41.2 2.1 15.7-.9 36-7.6 50.8-9.1 19.9-26.7 37.9-45.7 46.7-3.8 1.8-7.7 3.6-8.6 4-.8.4-5.5 1.8-10.5 3.1-7 1.8-11.6 2.3-21.9 2.3-15.2 0-18.9-.5-31-4.5-24.5-8.1-44.2-25.3-55.8-48.4-3.6-7.2-7.1-17.4-8.1-23.5-.3-1.9-.9-4.6-1.2-6-.7-3.6-.7-20.7.1-26 2-13.8 7.5-28.1 15.2-39.2 1.8-2.6 3.3-5 3.3-5.3 0-.3-21.1-.5-46.8-.5h-46.8v-19l.1-19h299.1l-.1 18.7z"/><path d="M362 367.7c-4.9.8-15 4.3-19.5 6.9-13.4 7.5-24.1 21.3-28 36.2-1.6 6.2-2.1 18.9-1 24.5 2.7 13.6 11.4 27.5 22.5 35.9 3.9 3 15.1 8.7 18.3 9.4 1.2.3 3.6.8 5.2 1.2 1.7.4 7.5.6 13 .6 7.6-.1 11.6-.7 16.5-2.4 16.9-5.9 30.3-19.2 36-35.4 11-31.2-5.6-64.7-37-74.7-6.2-2-20-3.1-26-2.2z"/></svg>