<svg xmlns="http://www.w3.org/2000/svg" width="48" height="48" viewBox="0 0 48 48">
  <g fill="none" fill-rule="evenodd" transform="translate(0 3)">
    <path fill="#C14200" d="M3.31020453,5.84068713 L44.6894825,5.84068713 C46.5178422,5.84068713 48,7.31196733 48,9.12659801 L48,38.7010387 C48,40.5156694 46.5175292,41.9869496 44.6894825,41.9869496 L3.31020453,41.9869496 C1.48215778,41.9869496 0,40.5156694 0,38.7010387 L0,9.12659801 C0,7.31196733 1.48215778,5.84068713 3.31020453,5.84068713 Z"/>
    <path fill="#8B8B8B" d="M15.7240192,3.29771838 L15.7240192,8.22674006 L19.0345367,8.22674006 L19.0345367,3.29771838 L28.9654633,3.29771838 L28.9654633,8.22674006 L32.2756678,8.22674006 L32.2756678,3.29771838 C32.2756678,1.48308769 30.79351,0.0118075682 28.9654633,0.0118075682 L19.0345367,0.0118075682 C17.20649,0.0118075682 15.7240192,1.48308769 15.7240192,3.29771838 Z"/>
    <path fill="#A73D07" d="M48,20.6277521 L27.3102045,29.6642401 L20.6897955,29.6642401 L0,20.6277521 L0,11.5912642 C0,9.77632282 1.48215778,8.30504261 3.31020453,8.30504261 L44.6894825,8.30504261 C46.5178422,8.30504261 48,9.77632282 48,11.5912642 L48,20.6277521 Z"/>
    <path fill="#DF5C1B" d="M48,18.1633967 L27.3102045,27.1998846 L20.6897955,27.1998846 L0,18.1633967 L0,9.12659801 C0,7.31196733 1.48215778,5.84068713 3.31020453,5.84068713 L44.6894825,5.84068713 C46.5178422,5.84068713 48,7.31196733 48,9.12659801 L48,18.1633967 Z"/>
    <polygon fill="#535353" points="15.724 4.198 19.035 4.198 19.035 5.841 15.724 5.841"/>
    <polygon fill="#535353" points="28.965 4.198 32.276 4.198 32.276 5.841 28.965 5.841"/>
    <path fill="#FFA230" d="M20.6897955,27.1998846 L27.3102045,27.1998846 L27.3102045,30.4857955 C27.3102045,32.3007368 25.8280467,33.772017 24,33.772017 C22.1719533,33.772017 20.6897955,32.3004261 20.6897955,30.4857955 L20.6897955,27.1998846 Z"/>
    <polygon fill="#FDB62F" points="23.172 29.664 24.828 29.664 24.828 31.307 23.172 31.307"/>
    <polygon fill="#FFA230" points="20.69 23.914 27.31 23.914 27.31 27.2 20.69 27.2"/>
    <polygon fill="#FDB62F" points="20.69 23.914 27.31 23.914 27.31 25.557 20.69 25.557"/>
    <polygon fill="#F0890C" points="20.69 27.2 27.31 27.2 27.31 28.843 20.69 28.843"/>
  </g>
</svg>
