<svg xmlns="http://www.w3.org/2000/svg" width="28" height="32" viewBox="0 0 28 32">
  <path fill="#CF2017" fill-rule="evenodd" d="M16.415993,1.02271249 L25.5884068,6.39239045 C27.0808273,7.26607734 28,8.87939263 28,10.6251753 L28,21.3748247 C28,23.1206074 27.0808273,24.7339227 25.5884068,25.6076095 L16.415993,30.9772875 C14.9212149,31.8523545 13.0787851,31.8523545 11.584007,30.9772875 L2.41159321,25.6076095 C0.91917268,24.7339227 1.19407681e-14,23.1206074 9.43306735e-15,21.3748247 L-1.71510316e-15,10.6251753 C-2.69174167e-15,8.87939263 0.91917268,7.26607734 2.41159321,6.39239045 L11.584007,1.02271249 C13.0787851,0.147645454 14.9212149,0.147645454 16.415993,1.02271249 Z M14,13.6429774 L8.84517797,8.48815536 L6.48815536,10.845178 L11.6429774,16 L6.48815536,21.154822 L8.84517797,23.5118446 L14,18.3570226 L19.154822,23.5118446 L21.5118446,21.154822 L16.3570226,16 L21.5118446,10.845178 L19.154822,8.48815536 L14,13.6429774 Z"/>
</svg>
