<svg xmlns="http://www.w3.org/2000/svg" width="32" height="36" viewBox="0 0 32 36">
  <g fill="none" fill-rule="evenodd">
    <path fill="#FFB100" d="M18.7611349,1.15055155 L29.2438935,7.19143926 C30.9495169,8.174337 32,9.98931671 32,11.9533222 L32,24.0466778 C32,26.0106833 30.9495169,27.825663 29.2438935,28.8085607 L18.7611349,34.8494484 C17.052817,35.8338989 14.947183,35.8338989 13.2388651,34.8494484 L2.75610652,28.8085607 C1.05048306,27.825663 1.4626651e-14,26.0106833 1.17607074e-14,24.0466778 L-9.80058946e-16,11.9533222 C-2.09621724e-15,9.98931671 1.05048306,8.174337 2.75610652,7.19143926 L13.2388651,1.15055155 C14.947183,0.166101136 17.052817,0.166101136 18.7611349,1.15055155 Z"/>
    <path fill="#333030" d="M8.99999869,0.375 C7.36718047,0.375 5.86133613,0.770234211 4.48242103,1.56071037 C3.10350856,2.35118653 2.01172278,3.42368477 1.20703115,4.77824119 C0.402339779,6.13279503 -5.32907052e-15,7.61203848 -5.32907052e-15,9.21601538 C-5.32907052e-15,11.1423209 0.572259963,12.8748218 1.71679695,14.4135646 C2.86133394,15.952307 4.33983366,17.0171321 6.15234362,17.6080708 C6.36328337,17.6464435 6.51953124,17.619583 6.62109249,17.5274886 C6.72265636,17.4353943 6.77343698,17.320278 6.77343698,17.1821365 C6.77343698,17.1514384 6.77148398,16.9423106 6.76757798,16.554747 C6.76367198,16.1671832 6.76171898,15.8275904 6.76171898,15.5359582 L6.49218661,15.5820051 C6.32031212,15.6127031 6.103516,15.6261334 5.84179563,15.6222962 C5.58007788,15.6184589 5.30859514,15.5915984 5.02734477,15.541714 C4.74609178,15.4918296 4.48437666,15.3767135 4.24218629,15.1963618 C3.99999854,15.0160097 3.82812667,14.7800213 3.7265628,14.4883912 L3.60937492,14.2236202 C3.53124968,14.0471053 3.4082028,13.851408 3.24023431,13.6365205 C3.07226581,13.4216356 2.90234431,13.2758219 2.73046982,13.1990767 L2.64843857,13.1415165 C2.59374958,13.103144 2.54296896,13.0570974 2.49609381,13.0033768 C2.4492184,12.9496536 2.41406256,12.8959331 2.39062499,12.8422125 C2.36718741,12.7884893 2.38671846,12.7443612 2.44921866,12.7098257 C2.51171912,12.6752927 2.62499916,12.6580236 2.78906244,12.6580236 L3.02343819,12.6925592 C3.17968868,12.7232577 3.37304618,12.8153509 3.60351592,12.9688412 C3.83398567,13.1223315 4.02343717,13.3218659 4.17187566,13.5674519 C4.35156216,13.8821065 4.56835828,14.1219319 4.82226665,14.2869358 C5.07617239,14.4519371 5.33203114,14.5344378 5.58984288,14.5344378 C5.84765725,14.5344378 6.07031237,14.5152502 6.25781349,14.4768776 C6.44531199,14.4385051 6.62109249,14.3809475 6.78515498,14.3042023 C6.86328023,13.7900082 7.05468473,13.3947766 7.35937372,13.1184945 C6.91406086,13.0724454 6.51367224,13.0033768 6.15820262,12.9112811 C5.802733,12.8191879 5.43554801,12.6695372 5.05663977,12.4623237 C4.67773153,12.2551128 4.36328278,11.9980183 4.11328041,11.6910377 C3.86328067,11.3840571 3.65820255,10.9811489 3.49804605,10.4823053 C3.33788956,9.9834618 3.25781131,9.40788085 3.25781131,8.75554443 C3.25781131,7.84227653 3.56640368,7.05181069 4.18359366,6.38412627 C3.89452867,5.68574585 3.92577929,4.902954 4.27734291,4.03573269 C4.49609466,3.96666153 4.82812302,4.01846361 5.27343852,4.1911415 C5.71875138,4.3638194 6.04492075,4.51155163 6.25195187,4.63434337 C6.45898562,4.75713511 6.62499849,4.86073927 6.75000098,4.945161 C7.47656684,4.74562153 8.2265582,4.64585437 8.99999869,4.64585437 C9.7734418,4.64585437 10.5234332,4.74562153 11.249999,4.945161 L11.6953119,4.66887895 C12.0000009,4.48469006 12.3593739,4.31585174 12.7734361,4.16236142 C13.187501,4.00887111 13.5039053,3.96666153 13.7226571,4.03573269 C14.0742207,4.902954 14.1054687,5.68574585 13.8164063,6.38412627 C14.4335963,7.05181069 14.7421861,7.84227653 14.7421861,8.75554443 C14.7421861,9.40788085 14.6621104,9.9853803 14.5019539,10.4880608 C14.3417948,10.9907439 14.1347663,11.3936496 13.880858,11.6967932 C13.6269522,11.9999368 13.3105478,12.2551128 12.9316396,12.4623237 C12.5527314,12.6695372 12.185549,12.8191879 11.8300768,12.9112811 C11.4746071,13.0033768 11.0742211,13.0724454 10.6289057,13.1184945 C11.0351585,13.4638477 11.238281,14.0087301 11.238281,14.7531597 C11.238281,15.2213064 11.236328,15.7374108 11.232422,16.3014887 C11.228516,16.8655667 11.226563,17.1591129 11.226563,17.1821365 C11.226563,17.320278 11.2773436,17.4353943 11.3789049,17.5274886 C11.4804688,17.619583 11.6367166,17.6464435 11.8476564,17.6080708 C13.6601637,17.0171321 15.1386661,15.952307 16.2832028,14.4135646 C17.4277395,12.8748218 18,11.1423209 18,9.21601538 C18,7.61203848 17.597661,6.13279503 16.7929673,4.77824119 C15.9882762,3.42368477 14.8964914,2.35118653 13.517579,1.56071037 C12.1386639,0.770234211 10.6328195,0.375 8.99999869,0.375 Z M3.4101558,13.0724454 C3.43359443,13.0187248 3.4062498,12.9726782 3.32812456,12.9343056 C3.24999931,12.9112811 3.19921868,12.9189576 3.17578006,12.9573302 C3.15234406,13.0110508 3.17968606,13.0570974 3.25781131,13.09547 C3.32812456,13.1415165 3.37890518,13.1338425 3.4101558,13.0724454 Z M3.77343742,13.4638452 C3.82812405,13.4254726 3.82031205,13.364078 3.7499988,13.2796589 C3.67187355,13.2105877 3.60937492,13.1990741 3.5625003,13.2451233 C3.50781105,13.2834959 3.51562568,13.3448904 3.5859363,13.4293096 C3.66406155,13.5060547 3.7265628,13.5175683 3.77343742,13.4638452 Z M4.12500104,13.9818737 C4.19531166,13.9281531 4.19531166,13.855245 4.12500104,13.7631518 C4.06249979,13.6633821 3.99609517,13.6403575 3.92578192,13.6940806 C3.85546867,13.7324532 3.85546867,13.8015218 3.92578192,13.9012915 C3.99609517,14.0010613 4.06249979,14.0279203 4.12500104,13.9818737 Z M4.61718853,14.4653666 C4.67968715,14.4039695 4.66406315,14.3310639 4.57031128,14.2466447 C4.47656203,14.154549 4.39843678,14.143038 4.33593816,14.2121092 C4.26562491,14.2735037 4.28124891,14.3464119 4.38281278,14.4308311 C4.47656203,14.5229268 4.55468728,14.5344378 4.61718853,14.4653666 Z M5.28515651,14.7531597 C5.30859251,14.6687405 5.25781189,14.607346 5.13281202,14.5689734 C5.01562415,14.5382748 4.94140752,14.5651338 4.9101569,14.6495555 C4.87890627,14.7339747 4.9296869,14.7915323 5.06249877,14.8222309 C5.17968927,14.8682774 5.25390589,14.8452554 5.28515651,14.7531597 Z M6.02343775,14.8107199 C6.02343775,14.7109501 5.9570305,14.6687405 5.82421863,14.6840885 C5.69921876,14.6840885 5.63671751,14.7262981 5.63671751,14.8107199 C5.63671751,14.910487 5.70312476,14.9526966 5.83593663,14.9373486 C5.96093913,14.9373486 6.02343775,14.895139 6.02343775,14.8107199 Z M6.70312374,14.6956021 C6.68749974,14.6111804 6.61718911,14.5766474 6.49218661,14.5919954 C6.36718674,14.61502 6.31250012,14.6725775 6.32812412,14.7646707 C6.34375074,14.8567664 6.41406137,14.887465 6.53906124,14.8567664 C6.66406374,14.8260679 6.71875036,14.7723473 6.70312374,14.6956021 Z" transform="translate(7 9)"/>
  </g>
</svg>
