<svg xmlns="http://www.w3.org/2000/svg" width="32" height="36" viewBox="0 0 32 36">
  <g fill="none" fill-rule="evenodd">
    <path fill="#FFB100" d="M18.7611349,1.15055155 L29.2438935,7.19143926 C30.9495169,8.174337 32,9.98931671 32,11.9533222 L32,24.0466778 C32,26.0106833 30.9495169,27.825663 29.2438935,28.8085607 L18.7611349,34.8494484 C17.052817,35.8338989 14.947183,35.8338989 13.2388651,34.8494484 L2.75610652,28.8085607 C1.05048306,27.825663 1.4626651e-14,26.0106833 1.17607074e-14,24.0466778 L-9.80058946e-16,11.9533222 C-2.09621724e-15,9.98931671 1.05048306,8.174337 2.75610652,7.19143926 L13.2388651,1.15055155 C14.947183,0.166101136 17.052817,0.166101136 18.7611349,1.15055155 Z"/>
    <path fill="#333030" d="M2.46875062,13.3958344 L4.87500057,13.3958344 L4.87500057,6.1666662 L2.46875062,6.1666662 L2.46875062,13.3958344 Z M5.0312499,3.93749992 C5.0243059,3.57638626 4.8993069,3.27778027 4.65625057,3.04166794 C4.41319424,2.80555561 4.09027958,2.68750061 3.68749959,2.68750061 C3.2847196,2.68750061 2.95659927,2.80555561 2.70312461,3.04166794 C2.44965228,3.27778027 2.32291658,3.57638626 2.32291658,3.93749992 C2.32291658,4.29166958 2.44618028,4.58853957 2.69270861,4.82812623 C2.93923694,5.06771056 3.2604156,5.18749923 3.65624926,5.18749923 L3.66666759,5.18749923 C4.07639158,5.18749923 4.40624791,5.06771056 4.65625057,4.82812623 C4.9062509,4.58853957 5.0312499,4.29166958 5.0312499,3.93749992 Z M11.1249994,13.3958344 L13.5312494,13.3958344 L13.5312494,9.25000047 C13.5312494,8.18054983 13.2777794,7.37153185 12.7708324,6.82291619 C12.2638854,6.27430287 11.5937544,6.00000087 10.7604161,6.00000087 C9.8159668,6.00000087 9.09027914,6.40624587 8.58333215,7.21874985 L8.60416649,7.21874985 L8.60416649,6.1666662 L6.19791654,6.1666662 C6.21875087,6.62500286 6.21875087,9.03470148 6.19791654,13.3958344 L8.60416649,13.3958344 L8.60416649,9.35416747 C8.60416649,9.09027681 8.62847282,8.89583315 8.67708315,8.77083415 C8.78125015,8.52777782 8.93749948,8.32118216 9.14583348,8.1510425 C9.35416747,7.98090283 9.61110947,7.89583417 9.91666646,7.89583417 C10.7222264,7.89583417 11.1249994,8.44096616 11.1249994,9.53125113 L11.1249994,13.3958344 Z M16,2.99999927 L16,13.0000007 C16,13.8263932 15.7065997,14.5329832 15.119792,15.1197918 C14.532982,15.7066001 13.8263927,16 13.0000007,16 L2.99999927,16 C2.17360682,16 1.4670168,15.7066001 0.880208215,15.1197918 C0.293399861,14.5329832 -1.42108547e-14,13.8263932 -1.42108547e-14,13.0000007 L-1.42108547e-14,2.99999927 C-1.42108547e-14,2.17360729 0.293399861,1.46701797 0.880208215,0.880207982 C1.4670168,0.293400327 2.17360682,-1.42108547e-14 2.99999927,-1.42108547e-14 L13.0000007,-1.42108547e-14 C13.8263927,-1.42108547e-14 14.532982,0.293400327 15.119792,0.880207982 C15.7065997,1.46701797 16,2.17360729 16,2.99999927 Z" transform="translate(8 10)"/>
  </g>
</svg>
