<svg xmlns="http://www.w3.org/2000/svg" width="28" height="32" viewBox="0 0 28 32">
  <path fill="#CF2017" fill-rule="evenodd" d="M16.415993,1.02271249 L25.5884068,6.39239045 C27.0808273,7.26607734 28,8.87939263 28,10.6251753 L28,21.3748247 C28,23.1206074 27.0808273,24.7339227 25.5884068,25.6076095 L16.415993,30.9772875 C14.9212149,31.8523545 13.0787851,31.8523545 11.584007,30.9772875 L2.41159321,25.6076095 C0.91917268,24.7339227 1.19407681e-14,23.1206074 9.43306735e-15,21.3748247 L-1.71510316e-15,10.6251753 C-2.69174167e-15,8.87939263 0.91917268,7.26607734 2.41159321,6.39239045 L11.584007,1.02271249 C13.0787851,0.147645454 14.9212149,0.147645454 16.415993,1.02271249 Z M11.75,10 C11.0596441,10 10.5,10.5596441 10.5,11.25 C10.5,11.9403559 11.0596441,12.5 11.75,12.5 L16.25,12.5 C16.9403559,12.5 17.5,11.9403559 17.5,11.25 C17.5,10.5596441 16.9403559,10 16.25,10 L11.75,10 Z M11.75,19.5 C11.0596441,19.5 10.5,20.0596441 10.5,20.75 C10.5,21.4403559 11.0596441,22 11.75,22 L16.25,22 C16.9403559,22 17.5,21.4403559 17.5,20.75 C17.5,20.0596441 16.9403559,19.5 16.25,19.5 L11.75,19.5 Z M9.25,14.75 C8.55964406,14.75 8,15.3096441 8,16 C8,16.6903559 8.55964406,17.25 9.25,17.25 L18.75,17.25 C19.4403559,17.25 20,16.6903559 20,16 C20,15.3096441 19.4403559,14.75 18.75,14.75 L9.25,14.75 Z"/>
</svg>
