<svg xmlns="http://www.w3.org/2000/svg" width="28" height="32" viewBox="0 0 28 32">
  <path fill="#CF2017" fill-rule="evenodd" d="M16.415993,1.02271249 L25.5884068,6.39239045 C27.0808273,7.26607734 28,8.87939263 28,10.6251753 L28,21.3748247 C28,23.1206074 27.0808273,24.7339227 25.5884068,25.6076095 L16.415993,30.9772875 C14.9212149,31.8523545 13.0787851,31.8523545 11.584007,30.9772875 L2.41159321,25.6076095 C0.91917268,24.7339227 1.19407681e-14,23.1206074 9.43306735e-15,21.3748247 L-1.71510316e-15,10.6251753 C-2.69174167e-15,8.87939263 0.91917268,7.26607734 2.41159321,6.39239045 L11.584007,1.02271249 C13.0787851,0.147645454 14.9212149,0.147645454 16.415993,1.02271249 Z M15.25,19.5 C14.5596441,19.5 14,20.0596441 14,20.75 C14,21.4403559 14.5596441,22 15.25,22 L18.75,22 C19.4403559,22 20,21.4403559 20,20.75 C20,20.0596441 19.4403559,19.5 18.75,19.5 L15.25,19.5 Z M14.1820666,14.4674283 C14.1365427,14.3987156 14.0835108,14.3335108 14.0229708,14.2729708 L10.1338835,10.3838835 C9.64572811,9.89572811 8.85427189,9.89572811 8.36611652,10.3838835 C7.87796116,10.8720388 7.87796116,11.6634951 8.36611652,12.1516504 L11.7248737,15.5104076 L8.71966991,18.5156115 C8.23151455,19.0037668 8.23151455,19.795223 8.71966991,20.2833784 C9.20782528,20.7715338 9.9992815,20.7715338 10.4874369,20.2833784 L14.3765242,16.3942911 C14.8646795,15.9061358 14.8646795,15.1146795 14.3765242,14.6265242 C14.3159842,14.5659842 14.2507793,14.5129522 14.1820666,14.4674283 Z"/>
</svg>
