<svg xmlns="http://www.w3.org/2000/svg" width="48" height="48" viewBox="0 0 48 48">
  <g fill="none" fill-rule="evenodd">
    <path fill="#FFEFB1" d="M47.1864407,33.3559322 C47.1864407,37.8467797 46.4542373,41.4915254 45.559322,41.4915254 C40.0993396,40.6189503 34.587679,40.1080073 29.060339,39.9620339 L27.0427119,39.0020339 C28.1670028,37.0055284 27.7469314,34.495263 26.0338983,32.9735593 C26.0094915,30.2725424 27.2705085,27.9620339 26.7579661,26.8149153 C33.0553005,26.7367112 39.3387641,26.2037995 45.559322,25.220339 C46.4542373,25.220339 47.1864407,28.8650847 47.1864407,33.3559322 Z"/>
    <path fill="#8C3407" d="M12.2033898,13.879322 L0.545084746,9.71389831 C0.22333466,9.59711862 0.00909106983,9.29143989 0.00909106983,8.94915254 C0.00909106983,8.60686519 0.22333466,8.30118647 0.545084746,8.18440678 L23.3084746,0.0488135593 C23.4927283,-0.0162602441 23.6937124,-0.0162602441 23.8779661,0.0488135593 L46.6413559,8.18440678 C46.963106,8.30118647 47.1773496,8.60686519 47.1773496,8.94915254 C47.1773496,9.29143989 46.963106,9.59711862 46.6413559,9.71389831 L41.4345763,11.5769492 L39.1810169,12.3823729 L34.9830508,13.879322 L12.2033898,13.879322 Z"/>
    <path fill="#D75616" d="M12.2033898,19.5254237 L12.2033898,10.5762712 C12.2033898,9.22576271 17.3044068,8.13559322 23.5932203,8.13559322 C29.8820339,8.13559322 34.9830508,9.22576271 34.9830508,10.5762712 L34.9830508,19.5254237 L12.2033898,19.5254237 Z"/>
    <path fill="#F0890C" d="M40.6779661,12.2033898 C40.2286497,12.2033898 39.8644068,11.8391469 39.8644068,11.3898305 L39.8644068,6.05288136 C39.8644068,5.60356495 40.2286497,5.23932203 40.6779661,5.23932203 C41.1272825,5.23932203 41.4915254,5.60356495 41.4915254,6.05288136 L41.4915254,11.3898305 C41.4915254,11.8391469 41.1272825,12.2033898 40.6779661,12.2033898 Z"/>
    <path fill="#FDB62F" d="M39.0508475,13.0169492 L39.0508475,15.4576271 C39.0508475,15.9069435 39.4150904,16.2711864 39.8644068,16.2711864 L41.4915254,16.2711864 C41.9408418,16.2711864 42.3050847,15.9069435 42.3050847,15.4576271 L42.3050847,13.0169492 C42.3050847,12.1183163 41.5765989,11.3898305 40.6779661,11.3898305 C39.7793333,11.3898305 39.0508475,12.1183163 39.0508475,13.0169492 Z"/>
    <ellipse cx="23.593" cy="19.525" fill="#8C3407" rx="11.39" ry="2.441"/>
    <g transform="translate(.814 24.407)">
      <path fill="#F8E8AB" d="M.927457627 17.060339L.813559322 17.0847458C.852884323 17.0853456.891831327 17.0769998.927457627 17.060339zM.911186441.829830508C.878375723.826162169.845786221.820730603.813559322.813559322.846642671.814989153.879427656.820453261.911186441.829830508z"/>
      <path fill="#FFEFB1" d="M0.919322034,0.829830508 C6.77505814,1.75260439 12.6872965,2.27179403 18.6142373,2.38372881 C19.1511864,3.57152542 21.1525424,6.06915254 21.1525424,8.94915254 C21.1525424,9.14440678 21.1525424,9.33152542 21.1444068,9.51864407 C20.1395993,11.0440706 20.0705397,13.0028515 20.9654237,14.5952542 L18.9559322,15.5064407 C12.918001,15.6119835 6.89439909,16.1311658 0.927457627,17.060339 L0.919322034,0.829830508 Z"/>
    </g>
    <path fill="#D94717" d="M20.3308475 33.9254237C20.3389831 33.7383051 20.3389831 33.5511864 20.3389831 33.3559322 20.42906 31.1306381 20.1204743 28.9071675 19.4277966 26.7905085 20.7620339 26.8311864 22.1532203 26.8474576 23.5932203 26.8474576 24.6752542 26.8474576 25.7328814 26.839322 26.7579661 26.8149153 27.4147534 28.799519 27.7176653 30.8841037 27.6528814 32.9735593L20.3308475 33.9254237zM24.4067797 41.4915254L22.2427119 46.6738983C22.1223799 46.9811977 21.8283282 47.1853589 21.4983524 47.1907098 21.1683764 47.1960609 20.8678597 47.0015413 20.7376271 46.6983051L20.1437288 45.3315254 18.7769492 45.9172881C18.4763179 46.0490996 18.1258178 45.9858971 17.8901611 45.7573815 17.6545045 45.528866 17.5805497 45.1804759 17.7030508 44.8759322L19.7694915 39.9132203 20.1518644 39.0020339 24.4067797 41.4915254zM28.6616949 39.0020339L29.060339 39.9620339 31.1105085 44.8759322C31.2330096 45.1804759 31.1590549 45.528866 30.9233982 45.7573815 30.6877416 45.9858971 30.3372414 46.0490996 30.0366102 45.9172881L28.6698305 45.3315254 28.0759322 46.6983051C27.9456997 47.0015413 27.6451829 47.1960609 27.315207 47.1907098 26.9852311 47.1853589 26.6911794 46.9811977 26.5708475 46.6738983L24.4067797 41.4915254 28.6616949 39.0020339z"/>
    <path fill="#EFCE6A" d="M3.25423729,33.3559322 C3.25423729,37.6515254 2.58711864,41.1742373 1.74101695,41.4671186 C1.70539065,41.4837794 1.66644364,41.4921253 1.62711864,41.4915254 C0.73220339,41.4915254 -4.6629367e-15,37.8467797 -4.6629367e-15,33.3559322 C-4.6629367e-15,28.8650847 0.73220339,25.220339 1.62711864,25.220339 C1.6360617,25.2192625 1.64501685,25.2222476 1.65152542,25.2284746 C1.66779661,25.2284746 1.69220339,25.2366102 1.72474576,25.2366102 L1.73288136,25.2366102 C2.57898305,25.5213559 3.25423729,29.0440678 3.25423729,33.3559322 Z"/>
    <path fill="#F15A29" d="M29.2881356,36.6101695 C29.2881356,39.3060679 27.1026781,41.4915254 24.4067797,41.4915254 C21.7108812,41.4915254 19.5254237,39.3060679 19.5254237,36.6101695 C19.5254237,33.9142711 21.7108812,31.7288136 24.4067797,31.7288136 C25.6066568,31.7217884 26.7653287,32.1660911 27.6528814,32.9735593 C28.6941396,33.895252 29.2896437,35.2195819 29.2881356,36.6101695 Z"/>
  </g>
</svg>
