<svg xmlns="http://www.w3.org/2000/svg" width="48" height="48" viewBox="0 0 48 48">
  <g fill="none" fill-rule="evenodd">
    <path fill="#ADB4B7" d="M47.0565517,7.96965517 L40.9737931,14.0524138 L35.1227586,12.8772414 L33.9475862,7.0262069 L40.0303448,0.943448276 C36.8533003,0.0948059758 33.4621614,0.872625152 30.9725416,3.02101962 C28.4829218,5.16941408 27.217182,8.41020545 27.5917241,11.6772414 C27.6863741,12.6870452 27.3181112,13.6853117 26.5903448,14.3917241 L16.5517241,24.4303448 L14.3917241,26.5903448 C13.6853117,27.3181112 12.6870452,27.6863741 11.6772414,27.5917241 C8.41020545,27.217182 5.16941408,28.4829218 3.02101962,30.9725416 C0.872625152,33.4621614 0.0948059758,36.8533003 0.943448276,40.0303448 L7.0262069,33.9475862 L12.8772414,35.1227586 L14.0524138,40.9737931 L7.96965517,47.0565517 C11.1466997,47.905194 14.5378386,47.1273748 17.0274584,44.9789804 C19.5170782,42.8305859 20.782818,39.5897945 20.4082759,36.3227586 C20.3136259,35.3129548 20.6818888,34.3146883 21.4096552,33.6082759 L33.6082759,21.4096552 C34.3146883,20.6818888 35.3129548,20.3136259 36.3227586,20.4082759 C39.5897945,20.782818 42.8305859,19.5170782 44.9789804,17.0274584 C47.1273748,14.5378386 47.905194,11.1466997 47.0565517,7.96965517 Z"/>
    <path fill="#8F979A" d="M5.17241379,31.2662069 C7.31445756,29.1201469 10.320284,28.071461 13.3324138,28.4193103 C14.3422176,28.5139604 15.3404841,28.1456974 16.0468966,27.417931 L18.2068966,25.257931 L28.2455172,15.2193103 C28.9732836,14.5128979 29.3415466,13.5146314 29.2468966,12.5048276 C28.9132602,9.62242092 29.8588633,6.738504 31.8344491,4.61326468 C33.8100349,2.48802535 36.6173556,1.33472894 39.5164138,1.45737931 L40.0303448,0.943448276 C36.8533003,0.0948059758 33.4621614,0.872625152 30.9725416,3.02101962 C28.4829218,5.16941408 27.217182,8.41020545 27.5917241,11.6772414 C27.6863741,12.6870452 27.3181112,13.6853117 26.5903448,14.3917241 L16.5517241,24.4303448 L14.3917241,26.5903448 C13.6853117,27.3181112 12.6870452,27.6863741 11.6772414,27.5917241 C8.41020545,27.217182 5.16941408,28.4829218 3.02101962,30.9725416 C0.872625152,33.4621614 0.0948059758,36.8533003 0.943448276,40.0303448 L2.28496552,38.6888276 C2.16253471,35.9189452 3.21040774,33.2252297 5.17241379,31.2662069 Z"/>
    <path fill="#58595B" d="M43.1172414,46.7288276 L47.9337931,47.9337931 L46.7288276,43.1172414 C44.9488506,43.5590586 43.5590586,44.9488506 43.1172414,46.7288276 Z"/>
    <path fill="#EDE0D9" d="M41.4968276,41.4968276 L38.5713103,40.9117241 L38.5713103,45.5892414 L43.1172414,46.7288276 C43.5590586,44.9488506 44.9488506,43.5590586 46.7288276,43.1172414 L45.5917241,38.5737931 L40.9117241,38.5737931 L41.4968276,41.4968276 Z"/>
    <polygon fill="#D1E7F8" points="9.427 11.084 12.736 11.084 12.736 11.086 9.427 11.086" transform="rotate(-45 11.081 11.085)"/>
    <polygon fill="#794225" points="14.595 7.573 11.084 4.062 4.062 11.084 7.573 14.595 9.914 12.255 12.255 9.914"/>
    <path fill="#E4D6CE" d="M8.74344828,1.72137931 C6.79981337,-0.190853619 3.6778544,-0.178141299 1.74985655,1.74985655 C-0.178141299,3.6778544 -0.190853619,6.79981337 1.72137931,8.74344828 L4.0617931,11.0838621 L11.0838621,4.0617931 L8.74344828,1.72137931 Z"/>
    <path fill="#8F979A" d="M27.8954483 21.2747586L26.7252414 20.1045517 30.278069 16.5517241C30.6012413 16.2286494 31.1251036 16.2286494 31.4482759 16.5517241 31.7713506 16.8748964 31.7713506 17.3987587 31.4482759 17.721931L27.8954483 21.2747586zM16.5517241 31.4482759C16.2286494 31.1251036 16.2286494 30.6012413 16.5517241 30.278069L20.1045517 26.7252414 21.2747586 27.8954483 17.721931 31.4482759C17.3987587 31.7713506 16.8748964 31.7713506 16.5517241 31.4482759z"/>
    <polygon fill="#D80027" points="9.915 12.256 7.572 14.599 16.982 24 24 31.018 38.571 45.589 38.571 40.912"/>
    <polygon fill="#F7941D" points="45.589 38.571 31.018 24 24 16.982 14.599 7.572 12.256 9.915 40.912 38.571"/>
    <polygon fill="#F15A29" points="38.571 40.912 41.497 41.497 40.912 38.571 12.256 9.915 9.915 12.256"/>
  </g>
</svg>
