<svg xmlns="http://www.w3.org/2000/svg" width="48" height="48" viewBox="0 0 48 48">
  <g fill="none" fill-rule="evenodd">
    <g transform="translate(7)">
      <path fill="#FFD0C6" d="M21,31.8999488 C21,33.0599738 20.2735777,34 19.3769732,34 L14.6233865,34 C13.7267821,34 13,33.0599738 13,31.8999488 L13,24.0997101 C13,22.9400261 13.7267821,22 14.6233865,22 L19.3769732,22 C20.2735777,22 21,22.9400261 21,24.0997101 L21,31.8999488 Z"/>
      <path fill="#D9F4FF" d="M33.9242282,41.8114836 L31.6864528,32.9552625 C30.9840827,30.7677638 28.6233286,28 24.8446579,28 L21.0791635,28 L21.0733074,28.0083043 C19.1356589,30.7421587 14.8712952,30.7380066 12.9395028,28 L9.15534211,28 C5.37667135,28 3.27980928,30.4162138 2.31354712,32.9552625 L0.0757718444,41.8114836 C-0.335621591,43.4387861 0.98017861,45 2.76300543,45 L31.2369945,45 C33.0198214,45 34.3356216,43.4387861 33.9242282,41.8114836 Z"/>
      <path fill="#8ED7F5" d="M21.0854105,28 L21.0795454,28.0074439 C19.1389295,30.4580476 14.8680352,30.4543257 12.9332844,28 L11,28 L13.7576979,31.6295361 C14.08761,32.0637654 14.808651,32.1273489 15.2371701,31.7598049 L17,30.2489973 L18.7624633,31.760115 C19.1913489,32.1276591 19.91239,32.0640755 20.242302,31.6295361 L23,28 L21.0854105,28 Z"/>
      <path fill="#A6CDDE" d="M33.9237747,41.8114836 L31.6726078,32.9552625 C30.9660345,30.7677638 28.5911528,28 24.7898693,28 L21.001841,28 L21,28.0027681 C24.7302212,28.0608984 27.0631282,30.7909467 27.7623375,32.9552625 L30.0135044,41.8114836 C30.4269916,43.4387861 29.1036854,45 27.3101894,45 L31.2204597,45 C33.0139557,45 34.3376301,43.4387861 33.9237747,41.8114836 Z"/>
      <path fill="#FFD0C6" d="M26.7686544,11.2683069 C26.6418451,11.2564699 26.5161715,11.2735291 26.3923905,11.3156551 C25.8768258,5.48590003 22.6339161,1 16.7617021,1 C16.1454471,1 15.5583392,1.05013346 15,1.14552633 C25.2079544,3.91609609 24.7404636,21.3242428 15,24.8537775 C15.5583392,24.9488222 16.1450685,25 16.7617021,25 C21.9423326,25 25.0758457,21.5084136 26.0967546,16.6837647 C26.1194667,16.6875944 26.1418003,16.6910758 26.1648909,16.6931648 C26.9946398,16.7708019 27.8031906,15.6198214 27.969746,14.121388 C28.1363014,12.6229547 27.5984032,11.345596 26.7686544,11.2683069 Z"/>
      <path fill="#FEE2D8" d="M26.9544033,11.6189451 C26.5742628,14.3928215 25.1611474,4.99762 17.6109472,5.00000045 C6.54203791,5.00374114 7.43829539,12.2456773 7.10076311,11.6050026 C6.34863309,11.7733327 5.87364252,12.9747678 6.02962622,14.3744583 C6.19264949,15.8380803 6.98405334,16.9623214 7.79620561,16.8864879 C7.81843596,16.8844475 7.8406665,16.8810469 7.86289685,16.8773063 C8.86215544,21.5898697 11.9292158,25 16.9999805,25 C22.070745,25 25.1378055,21.5898697 26.137064,16.8773063 C26.1592945,16.8810469 26.1811544,16.8844475 26.2037554,16.8864879 C27.0159076,16.9623214 27.8073115,15.8377401 27.9703347,14.3744583 C28.1226133,13.009454 27.6742993,11.8325033 26.9544033,11.6189451 Z"/>
      <path fill="#8A7E88" d="M8.2278444,12.951202 C8.2278444,12.951202 9.99721174,9.67688821 11.1341817,8.54764198 C12.2715254,7.41872933 11.7662054,6.28948301 11.7662054,6.28948301 C11.7662054,6.28948301 13.2578711,9.33828112 16.4923674,9.56413035 C19.7272374,9.789646 23.7709184,10.0154953 24.5288983,11.59644 C25.287252,13.1770512 25.287252,16 25.287252,16 C25.287252,16 29.4580106,8.43388328 24.7826796,4.03032329 C20.1073486,-0.373236708 15.1782364,-0.398256872 13.0298791,0.400722321 C11.8065712,0.855423272 11.5135455,2.56347079 11.5135455,2.56347079 C8.35454817,0.982526005 2.92086348,7.19288001 8.2278444,12.951202 Z"/>
      <path fill="#635562" d="M24.8808095,4.03031416 C20.6510109,-0.137841396 16.2047392,-0.383046665 14,0.280175147 C15.9775496,0.746231903 18.2465878,1.85282481 20.456328,4.03031416 C22.2802746,5.82781875 22.69536,8.15243122 22.5478297,10.2738736 C23.573755,10.5591124 24.3517721,10.9717912 24.6382596,11.5966475 C25.3630516,13.177304 25.3630516,16 25.3630516,16 C25.3630516,16 29.3492286,8.43400024 24.8808095,4.03031416 Z"/>
      <path fill="#FFD0C6" d="M26.9317533,11.8013321 C26.543378,14.5373999 25.3135228,16.7538933 25.3135228,16.7538933 C25.3135228,16.7538933 25.3135228,13.9155206 24.5454784,12.3262734 C24.2434087,11.7007044 23.4246408,11.286789 22.3443063,11 C23.1214355,16.5633715 20.5852613,22.9096267 15,24.8591212 C15.5587154,24.9510279 16.1454423,25 16.7616948,25 C21.9423037,25 25.0761823,21.6363506 26.0967085,16.9880205 C26.1194206,16.9917102 26.1421326,16.9950644 26.1648446,16.997077 C26.9949684,17.0718769 27.8031374,15.9626239 27.9696921,14.519287 C28.1252694,13.172888 27.6672439,12.0119795 26.9317533,11.8013321 Z"/>
    </g>
    <g fill="#EF9A1E" transform="translate(0 34)">
      <path d="M13.9124304,5.03952143 L9.2972449,4.60006429 L7.46396104,0.229521429 C7.33561224,-0.0765071429 6.91296846,-0.0765071429 6.78461967,0.229521429 L4.95136364,4.60009286 L0.336178108,5.03952143 C0.0130241187,5.07029286 -0.11757885,5.48295 0.126233766,5.70283571 L3.60840445,8.84346429 L2.58935065,13.4856357 C2.51799629,13.8106643 2.85990724,14.0656929 3.13895176,13.8955786 L7.12430427,11.4660357 L11.1096568,13.8955786 C11.3887013,14.0656929 11.7306401,13.8106643 11.6592857,13.4856357 L10.6402041,8.84346429 L14.1223748,5.70283571 C14.3661874,5.48295 14.2355844,5.07029286 13.9124304,5.03952143 Z" transform="translate(17.375)"/>
      <path d="M13.9124304,5.03952143 L9.2972449,4.60006429 L7.46396104,0.229521429 C7.33561224,-0.0765071429 6.91296846,-0.0765071429 6.78461967,0.229521429 L4.95136364,4.60009286 L0.336178108,5.03952143 C0.0130241187,5.07029286 -0.11757885,5.48295 0.126233766,5.70283571 L3.60840445,8.84346429 L2.58935065,13.4856357 C2.51799629,13.8106643 2.85990724,14.0656929 3.13895176,13.8955786 L7.12430427,11.4660357 L11.1096568,13.8955786 C11.3887013,14.0656929 11.7306401,13.8106643 11.6592857,13.4856357 L10.6402041,8.84346429 L14.1223748,5.70283571 C14.3661874,5.48295 14.2355844,5.07029286 13.9124304,5.03952143 Z" transform="translate(.375)"/>
      <path d="M13.9124304,5.03952143 L9.2972449,4.60006429 L7.46396104,0.229521429 C7.33561224,-0.0765071429 6.91296846,-0.0765071429 6.78461967,0.229521429 L4.95136364,4.60009286 L0.336178108,5.03952143 C0.0130241187,5.07029286 -0.11757885,5.48295 0.126233766,5.70283571 L3.60840445,8.84346429 L2.58935065,13.4856357 C2.51799629,13.8106643 2.85990724,14.0656929 3.13895176,13.8955786 L7.12430427,11.4660357 L11.1096568,13.8955786 C11.3887013,14.0656929 11.7306401,13.8106643 11.6592857,13.4856357 L10.6402041,8.84346429 L14.1223748,5.70283571 C14.3661874,5.48295 14.2355844,5.07029286 13.9124304,5.03952143 Z" transform="translate(33.375)"/>
    </g>
  </g>
</svg>
