<svg xmlns="http://www.w3.org/2000/svg" xmlns:xlink="http://www.w3.org/1999/xlink" width="694" height="404" viewBox="0 0 694 404">
  <defs>
    <path id="full_logo_vertical-a" d="M126.009114,2.67768576 L222.009114,58.1706944 C228.191999,61.7447246 232,68.3443858 232,75.4859374 L232,186.514063 C232,193.655614 228.191999,200.255275 222.009114,203.829306 L126.009114,259.322314 C119.816462,262.90199 112.183538,262.90199 105.990886,259.322314 L9.99088615,203.829306 C3.8080011,200.255275 1.64299417e-13,193.655614 1.63424829e-13,186.514063 L9.59232693e-14,75.4859374 C9.50486815e-14,68.3443858 3.8080011,61.7447246 9.99088615,58.1706944 L105.990886,2.67768576 C112.183538,-0.901990251 119.816462,-0.901990251 126.009114,2.67768576 Z"/>
  </defs>
  <g fill="none" fill-rule="evenodd">
    <path fill="#000" d="M0,73.8878116 L0,3.11218837 L1.30751178,3.11218837 C5.53178061,3.11218837 15.5895635,2.80886427 20.7190328,2.80886427 C48.880825,2.80886427 60.2461198,19.0872576 60.2461198,37.7922438 C60.2461198,57.7105263 46.7686906,74.0900277 19.9144102,74.0900277 C15.6901414,74.0900277 7.84507069,73.8878116 1.40808961,73.8878116 L0,73.8878116 Z M20.5178772,14.4362881 C17.6011201,14.4362881 15.1872522,14.5373961 12.371073,14.7396122 L12.371073,62.2603878 C15.7907192,62.4626039 18.6068984,62.4626039 20.3167215,62.4626039 C37.3143747,62.4626039 47.1710019,52.7562327 47.1710019,37.7922438 C47.1710019,23.5360111 37.3143747,14.4362881 20.5178772,14.4362881 Z M59.1689636,73.8878116 L88.9400011,2.9099723 L99.8024067,2.9099723 L129.573444,73.8878116 L116.397749,73.8878116 L109.055567,55.7894737 L78.982796,55.7894737 L71.6406145,73.8878116 L59.1689636,73.8878116 Z M94.0694704,18.9861496 L83.709954,44.1620499 L104.328409,44.1620499 L94.0694704,18.9861496 Z M137.538559,73.8878116 L137.538559,3.11218837 L150.01021,3.11218837 L174.048311,36.1745152 L196.980056,3.11218837 L208.647085,3.11218837 L208.647085,73.8878116 L196.376589,73.8878116 L196.376589,22.7271468 L174.148889,54.1717452 L172.338488,54.1717452 L149.909632,23.0304709 L149.909632,73.8878116 L137.538559,73.8878116 Z M220.583402,73.8878116 L220.583402,3.11218837 L232.954475,3.11218837 L232.954475,73.8878116 L220.583402,73.8878116 Z M241.67879,73.8878116 L271.449828,2.9099723 L282.312234,2.9099723 L312.083271,73.8878116 L298.907575,73.8878116 L291.565394,55.7894737 L261.492623,55.7894737 L254.150441,73.8878116 L241.67879,73.8878116 Z M276.579297,18.9861496 L266.219781,44.1620499 L286.838236,44.1620499 L276.579297,18.9861496 Z M380.193928,73.8878116 L370.337301,73.8878116 L331.614837,24.8504155 L331.614837,73.8878116 L320.048386,73.8878116 L320.048386,3.11218837 L329.905013,3.11218837 L368.627478,52.3518006 L368.627478,3.11218837 L380.193928,3.11218837 L380.193928,73.8878116 Z M418.43297,73.8878116 L418.43297,3.11218837 L430.804043,3.11218837 L430.804043,62.2603878 L462.486059,62.2603878 L462.486059,73.8878116 L418.43297,73.8878116 Z M470.853486,73.8878116 L470.853486,3.11218837 L511.587507,3.11218837 L511.587507,14.7396122 L483.224559,14.7396122 L483.224559,32.33241 L508.570172,32.33241 L508.570172,43.9598338 L483.224559,43.9598338 L483.224559,62.2603878 L512.593285,62.2603878 L512.593285,73.8878116 L470.853486,73.8878116 Z M617.495961,3.11218837 L597.380395,73.8878116 L585.813945,73.8878116 L568.816291,22.7271468 L552.120372,73.8878116 L540.453344,73.8878116 L519.432577,3.11218837 L533.312318,3.11218837 L547.493792,53.565097 L563.183933,3.11218837 L575.454428,3.11218837 L591.546881,53.666205 L605.627777,3.11218837 L617.495961,3.11218837 Z M625.370232,73.8878116 L625.370232,3.11218837 L637.741305,3.11218837 L637.741305,73.8878116 L625.370232,73.8878116 Z M680.924882,55.0817175 C680.924882,41.1288089 649.04171,44.566482 649.04171,21.5138504 C649.04171,10.8975069 657.289092,2 670.967677,2 C679.61737,2 686.858974,4.93213296 691.083243,9.58310249 L684.445106,18.8850416 C681.02546,15.5484765 677.605814,13.6274238 671.973455,13.6274238 C665.838208,13.6274238 662.116828,16.7617729 662.116828,21.4127424 C662.116828,36.0734072 694,31.4224377 694,54.9806094 C694,66.9113573 683.640484,75 670.464788,75 C661.412783,75 650.852111,71.0567867 647.432465,63.8781163 L654.472913,55.3850416 C658.596604,60.7437673 665.234741,63.3725762 670.665944,63.3725762 C676.499458,63.3725762 680.924882,60.4404432 680.924882,55.0817175 Z" transform="translate(0 329)"/>
    <g transform="translate(247)">
      <path fill="#FFB100" d="M126.009114,2.67768576 L222.009114,58.1706944 C228.191999,61.7447246 232,68.3443858 232,75.4859374 L232,186.514063 C232,193.655614 228.191999,200.255275 222.009114,203.829306 L126.009114,259.322314 C119.816462,262.90199 112.183538,262.90199 105.990886,259.322314 L9.99088615,203.829306 C3.8080011,200.255275 1.64299417e-13,193.655614 1.63424829e-13,186.514063 L9.59232693e-14,75.4859374 C9.50486815e-14,68.3443858 3.8080011,61.7447246 9.99088615,58.1706944 L105.990886,2.67768576 C112.183538,-0.901990251 119.816462,-0.901990251 126.009114,2.67768576 Z"/>
      <path fill="#161616" d="M35.9143181,107.657143 C16.1057563,107.657143 0,91.4980893 0,71.7142857 C0,51.9304821 16.1057563,35.7714286 35.9143181,35.7714286 C43.8895808,35.7714286 51.3957343,38.4652622 57.5953751,43.3273671 L57.5953751,8 L71.8286362,8 L71.8286362,120 L57.5953751,120 L57.5953751,100.419562 C51.35641,105.026399 43.7089792,107.657143 35.9143181,107.657143 Z M35.9160318,50.016 C23.9453354,50.016 14.2332611,59.8488128 14.2332611,71.8290216 C14.2332611,83.8092304 23.9453354,93.4160015 35.9160318,93.4160015 C47.8867281,93.4160015 57.5988025,83.8092304 57.5988025,71.8290216 C57.5988025,59.8488128 47.8867281,50.016 35.9160318,50.016 Z M128,95.5108571 L128,109.755429 L82.934097,109.755429 L82.934097,8 L97.1673581,8 L97.1673581,95.5108571 L128,95.5108571 Z" transform="rotate(-90 123.5 71.5)"/>
      <g opacity=".248" style="mix-blend-mode:soft-light">
        <mask id="full_logo_vertical-b" fill="#fff">
          <use xlink:href="#full_logo_vertical-a"/>
        </mask>
        <use fill="#000" xlink:href="#full_logo_vertical-a"/>
        <g mask="url(#full_logo_vertical-b)">
          <g transform="translate(0 -4)">
            <polygon fill="#898989" points="232 202.061 116 269.115 0 202.061 116 135.007"/>
            <polygon fill="#646464" points="116 .899 116 135.007 0 202.061 0 67.953"/>
            <polygon fill="#B4B4B4" points="116 .892 232 67.946 232 202.054 116 135"/>
          </g>
        </g>
      </g>
    </g>
  </g>
</svg>
