<svg xmlns="http://www.w3.org/2000/svg" xmlns:xlink="http://www.w3.org/1999/xlink" width="1020" height="262" viewBox="0 0 1020 262">
  <defs>
    <path id="full_logo_horizontal-a" d="M126.009114,2.67768576 L222.009114,58.1706944 C228.191999,61.7447246 232,68.3443858 232,75.4859374 L232,186.514063 C232,193.655614 228.191999,200.255275 222.009114,203.829306 L126.009114,259.322314 C119.816462,262.90199 112.183538,262.90199 105.990886,259.322314 L9.99088615,203.829306 C3.8080011,200.255275 1.64299417e-13,193.655614 1.63424829e-13,186.514063 L9.59232693e-14,75.4859374 C9.50486815e-14,68.3443858 3.8080011,61.7447246 9.99088615,58.1706944 L105.990886,2.67768576 C112.183538,-0.901990251 119.816462,-0.901990251 126.009114,2.67768576 Z"/>
  </defs>
  <g fill="none" fill-rule="evenodd">
    <path fill="#FFB100" d="M126.009114,2.67768576 L222.009114,58.1706944 C228.191999,61.7447246 232,68.3443858 232,75.4859374 L232,186.514063 C232,193.655614 228.191999,200.255275 222.009114,203.829306 L126.009114,259.322314 C119.816462,262.90199 112.183538,262.90199 105.990886,259.322314 L9.99088615,203.829306 C3.8080011,200.255275 1.64299417e-13,193.655614 1.63424829e-13,186.514063 L9.59232693e-14,75.4859374 C9.50486815e-14,68.3443858 3.8080011,61.7447246 9.99088615,58.1706944 L105.990886,2.67768576 C112.183538,-0.901990251 119.816462,-0.901990251 126.009114,2.67768576 Z"/>
    <path fill="#161616" d="M35.9143181,107.657143 C16.1057563,107.657143 0,91.4980893 0,71.7142857 C0,51.9304821 16.1057563,35.7714286 35.9143181,35.7714286 C43.8895808,35.7714286 51.3957343,38.4652622 57.5953751,43.3273671 L57.5953751,8 L71.8286362,8 L71.8286362,120 L57.5953751,120 L57.5953751,100.419562 C51.35641,105.026399 43.7089792,107.657143 35.9143181,107.657143 Z M35.9160318,50.016 C23.9453354,50.016 14.2332611,59.8488128 14.2332611,71.8290216 C14.2332611,83.8092304 23.9453354,93.4160015 35.9160318,93.4160015 C47.8867281,93.4160015 57.5988025,83.8092304 57.5988025,71.8290216 C57.5988025,59.8488128 47.8867281,50.016 35.9160318,50.016 Z M128,95.5108571 L128,109.755429 L82.934097,109.755429 L82.934097,8 L97.1673581,8 L97.1673581,95.5108571 L128,95.5108571 Z" transform="rotate(-90 123.5 71.5)"/>
    <g opacity=".248" style="mix-blend-mode:soft-light">
      <mask id="full_logo_horizontal-b" fill="#fff">
        <use xlink:href="#full_logo_horizontal-a"/>
      </mask>
      <use fill="#000" xlink:href="#full_logo_horizontal-a"/>
      <g mask="url(#full_logo_horizontal-b)">
        <g transform="translate(0 -4)">
          <polygon fill="#898989" points="232 202.061 116 269.115 0 202.061 116 135.007"/>
          <polygon fill="#646464" points="116 .899 116 135.007 0 202.061 0 67.953"/>
          <polygon fill="#B4B4B4" points="116 .892 232 67.946 232 202.054 116 135"/>
        </g>
      </g>
    </g>
    <path fill="#161616" d="M0,74.8421053 L0,1.15789474 L1.36780051,1.15789474 C5.78684831,1.15789474 16.3083907,0.842105263 21.6743773,0.842105263 C51.1346959,0.842105263 63.0240388,17.7894737 63.0240388,37.2631579 C63.0240388,58 48.925172,75.0526316 20.8326539,75.0526316 C16.4136061,75.0526316 8.20680305,74.8421053 1.47301593,74.8421053 L0,74.8421053 Z M21.4639464,12.9473684 C18.4126992,12.9473684 15.887529,13.0526316 12.9414971,13.2631579 L12.9414971,62.7368421 C16.5188215,62.9473684 19.4648534,62.9473684 21.2535156,62.9473684 C39.0349222,62.9473684 49.3460337,52.8421053 49.3460337,37.2631579 C49.3460337,22.4210526 39.0349222,12.9473684 21.4639464,12.9473684 Z M61.8972156,74.8421053 L93.040981,0.947368421 L104.404247,0.947368421 L135.548012,74.8421053 L121.764792,74.8421053 L114.084066,56 L82.6246541,56 L74.9439281,74.8421053 L61.8972156,74.8421053 Z M98.4069676,17.6842105 L87.569779,43.8947368 L109.138941,43.8947368 L98.4069676,17.6842105 Z M143.880395,74.8421053 L143.880395,1.15789474 L156.927107,1.15789474 L182.073594,35.5789474 L206.06271,1.15789474 L218.2677,1.15789474 L218.2677,74.8421053 L205.431418,74.8421053 L205.431418,21.5789474 L182.178809,54.3157895 L180.284932,54.3157895 L156.821892,21.8947368 L156.821892,74.8421053 L143.880395,74.8421053 Z M230.754394,74.8421053 L230.754394,1.15789474 L243.695892,1.15789474 L243.695892,74.8421053 L230.754394,74.8421053 Z M252.822481,74.8421053 L283.966247,0.947368421 L295.329512,0.947368421 L326.473278,74.8421053 L312.690057,74.8421053 L305.009331,56 L273.54992,56 L265.869194,74.8421053 L252.822481,74.8421053 Z M289.332233,17.6842105 L278.495045,43.8947368 L300.064206,43.8947368 L289.332233,17.6842105 Z M397.724484,74.8421053 L387.413372,74.8421053 L346.905434,23.7894737 L346.905434,74.8421053 L334.80566,74.8421053 L334.80566,1.15789474 L345.116772,1.15789474 L385.62471,52.4210526 L385.62471,1.15789474 L397.724484,1.15789474 L397.724484,74.8421053 Z M437.726709,74.8421053 L437.726709,1.15789474 L450.668206,1.15789474 L450.668206,62.7368421 L483.811065,62.7368421 L483.811065,74.8421053 L437.726709,74.8421053 Z M492.564309,74.8421053 L492.564309,1.15789474 L535.176556,1.15789474 L535.176556,13.2631579 L505.505806,13.2631579 L505.505806,31.5789474 L532.020093,31.5789474 L532.020093,43.6842105 L505.505806,43.6842105 L505.505806,62.7368421 L536.22871,62.7368421 L536.22871,74.8421053 L492.564309,74.8421053 Z M645.968397,1.15789474 L624.925312,74.8421053 L612.825539,74.8421053 L595.044132,21.5789474 L577.578372,74.8421053 L565.373382,74.8421053 L543.383359,1.15789474 L557.903087,1.15789474 L572.738462,53.6842105 L589.152068,1.15789474 L601.98835,1.15789474 L618.822818,53.7894737 L633.552977,1.15789474 L645.968397,1.15789474 Z M654.205747,74.8421053 L654.205747,1.15789474 L667.147244,1.15789474 L667.147244,74.8421053 L654.205747,74.8421053 Z M712.321995,55.2631579 C712.321995,40.7368421 678.968706,44.3157895 678.968706,20.3157895 C678.968706,9.26315789 687.59637,0 701.905668,0 C710.954194,0 718.529705,3.05263158 722.948753,7.89473684 L716.004535,17.5789474 C712.42721,14.1052632 708.849886,12.1052632 702.957822,12.1052632 C696.539681,12.1052632 692.646711,15.3684211 692.646711,20.2105263 C692.646711,35.4736842 726,30.6315789 726,55.1578947 C726,67.5789474 715.162811,76 701.379591,76 C691.910203,76 680.862583,71.8947368 677.285259,64.4210526 L684.650338,55.5789474 C688.964171,61.1578947 695.908389,63.8947368 701.590022,63.8947368 C707.692516,63.8947368 712.321995,60.8421053 712.321995,55.2631579 Z" transform="translate(294 93)"/>
  </g>
</svg>
