<svg xmlns="http://www.w3.org/2000/svg" xmlns:xlink="http://www.w3.org/1999/xlink" width="53" height="60" viewBox="0 0 53 60">
  <defs>
    <path id="logo_53x60-a" d="M28.7865648,0.613210478 L50.7175993,13.3215331 C52.1300687,14.1400133 53,15.6513861 53,17.2868559 L53,42.7131441 C53,44.3486139 52.1300687,45.8599867 50.7175993,46.6784669 L28.7865648,59.3867895 C27.3718641,60.2065627 25.6281359,60.2065627 24.2134352,59.3867895 L2.28240072,46.6784669 C0.869931287,45.8599867 1.25249194e-13,44.3486139 1.25049396e-13,42.7131441 L1.09628781e-13,17.2868559 C1.09428983e-13,15.6513861 0.869931287,14.1400133 2.28240072,13.3215331 L24.2134352,0.613210478 C25.6281359,-0.206562653 27.3718641,-0.206562653 28.7865648,0.613210478 Z"/>
  </defs>
  <g fill="none" fill-rule="evenodd">
    <path fill="#FFB100" d="M28.7865648,0.614796662 L50.7175993,13.3224333 C52.1300687,14.1408693 53,15.6521605 53,17.2875421 L53,42.7124579 C53,44.3478395 52.1300687,45.8591307 50.7175993,46.6775667 L28.7865648,59.3852033 C27.3718641,60.2049322 25.6281359,60.2049322 24.2134352,59.3852033 L2.28240072,46.6775667 C0.869931287,45.8591307 1.25249194e-13,44.3478395 1.25049396e-13,42.7124579 L1.09628781e-13,17.2875421 C1.09428983e-13,15.6521605 0.869931287,14.1408693 2.28240072,13.3224333 L24.2134352,0.614796662 C25.6281359,-0.204932221 27.3718641,-0.204932221 28.7865648,0.614796662 Z"/>
    <path fill="#161616" d="M8.13683769,24.244898 C3.64896041,24.244898 0,20.6379664 0,16.2219388 C0,11.8059112 3.64896041,8.19897959 8.13683769,8.19897959 C9.94373314,8.19897959 11.6443461,8.80028175 13.0489522,9.88557301 L13.0489522,2 L16.2736754,2 L16.2736754,27 L13.0489522,27 L13.0489522,22.6293665 C11.6354366,23.6576783 9.9028156,24.244898 8.13683769,24.244898 Z M8.13722595,11.3785714 C5.42511506,11.3785714 3.22472321,13.5733957 3.22472321,16.2475495 C3.22472321,18.9217032 5.42511506,21.0660718 8.13722595,21.0660718 C10.8493368,21.0660718 13.0497287,18.9217032 13.0497287,16.2475495 C13.0497287,13.5733957 10.8493368,11.3785714 8.13722595,11.3785714 Z M29,21.5336735 L29,24.7132653 L18.7897564,24.7132653 L18.7897564,2 L22.0144796,2 L22.0144796,21.5336735 L29,21.5336735 Z" transform="rotate(-90 28.232 16.389)"/>
    <g opacity=".248" style="mix-blend-mode:soft-light">
      <mask id="logo_53x60-b" fill="#fff">
        <use xlink:href="#logo_53x60-a"/>
      </mask>
      <use fill="#000" xlink:href="#logo_53x60-a"/>
      <g mask="url(#logo_53x60-b)">
        <g transform="translate(0 -.916)">
          <polygon fill="#898989" points="53 46.274 26.5 61.629 0 46.274 26.5 30.918"/>
          <polygon fill="#646464" points="26.5 .206 26.5 30.918 0 46.274 0 15.562"/>
          <polygon fill="#B4B4B4" points="26.5 .204 53 15.56 53 46.272 26.5 30.916"/>
        </g>
      </g>
    </g>
  </g>
</svg>
