<svg xmlns="http://www.w3.org/2000/svg" xmlns:xlink="http://www.w3.org/1999/xlink" width="232" height="262" viewBox="0 0 232 262">
  <defs>
    <path id="logo-a" d="M126.009114,2.67768576 L222.009114,58.1706944 C228.191999,61.7447246 232,68.3443858 232,75.4859374 L232,186.514063 C232,193.655614 228.191999,200.255275 222.009114,203.829306 L126.009114,259.322314 C119.816462,262.90199 112.183538,262.90199 105.990886,259.322314 L9.99088615,203.829306 C3.8080011,200.255275 1.64299417e-13,193.655614 1.63424829e-13,186.514063 L9.59232693e-14,75.4859374 C9.50486815e-14,68.3443858 3.8080011,61.7447246 9.99088615,58.1706944 L105.990886,2.67768576 C112.183538,-0.901990251 119.816462,-0.901990251 126.009114,2.67768576 Z"/>
  </defs>
  <g fill="none" fill-rule="evenodd">
    <path fill="#FFB100" d="M126.009114,2.67768576 L222.009114,58.1706944 C228.191999,61.7447246 232,68.3443858 232,75.4859374 L232,186.514063 C232,193.655614 228.191999,200.255275 222.009114,203.829306 L126.009114,259.322314 C119.816462,262.90199 112.183538,262.90199 105.990886,259.322314 L9.99088615,203.829306 C3.8080011,200.255275 1.64299417e-13,193.655614 1.63424829e-13,186.514063 L9.59232693e-14,75.4859374 C9.50486815e-14,68.3443858 3.8080011,61.7447246 9.99088615,58.1706944 L105.990886,2.67768576 C112.183538,-0.901990251 119.816462,-0.901990251 126.009114,2.67768576 Z"/>
    <path fill="#161616" d="M35.9143181,107.657143 C16.1057563,107.657143 0,91.4980893 0,71.7142857 C0,51.9304821 16.1057563,35.7714286 35.9143181,35.7714286 C43.8895808,35.7714286 51.3957343,38.4652622 57.5953751,43.3273671 L57.5953751,8 L71.8286362,8 L71.8286362,120 L57.5953751,120 L57.5953751,100.419562 C51.35641,105.026399 43.7089792,107.657143 35.9143181,107.657143 Z M35.9160318,50.016 C23.9453354,50.016 14.2332611,59.8488128 14.2332611,71.8290216 C14.2332611,83.8092304 23.9453354,93.4160015 35.9160318,93.4160015 C47.8867281,93.4160015 57.5988025,83.8092304 57.5988025,71.8290216 C57.5988025,59.8488128 47.8867281,50.016 35.9160318,50.016 Z M128,95.5108571 L128,109.755429 L82.934097,109.755429 L82.934097,8 L97.1673581,8 L97.1673581,95.5108571 L128,95.5108571 Z" transform="rotate(-90 123.5 71.5)"/>
    <g opacity=".248" style="mix-blend-mode:soft-light">
      <mask id="logo-b" fill="#fff">
        <use xlink:href="#logo-a"/>
      </mask>
      <use fill="#000" xlink:href="#logo-a"/>
      <g mask="url(#logo-b)">
        <g transform="translate(0 -4)">
          <polygon fill="#898989" points="232 202.061 116 269.115 0 202.061 116 135.007"/>
          <polygon fill="#646464" points="116 .899 116 135.007 0 202.061 0 67.953"/>
          <polygon fill="#B4B4B4" points="116 .892 232 67.946 232 202.054 116 135"/>
        </g>
      </g>
    </g>
  </g>
</svg>
